PathFileType	4	(X/Y/Z)	C:\Users\dbl\Desktop\20210112\20210112\bx_n_5_902.trc
DataRate	CameraRate	NumFrames	NumMarkers	Units	OrigDataRate	OrigDataStartFrame	OrigNumFrames
50.00	50.00	       4	43	mm	50.00	409	       545
Frame#	Time	Top.Head			R.Acromium			L.Acromium			Sternum			R.ASIS			L.ASIS			V.Sacral			R.Thigh.Upper			R.Thigh.Front			R.Thigh.Rear			R.Knee.Lat			R.Knee.Med			R.Shank.Upper			R.Shank.Front			R.Shank.Rear			R.Ankle.Lat			R.Midfoot.Lat			R.Toe.Lat			R.Toe.Tip			R.Toe.Med			R.Ankle.Med			R.Midfoot.Sup			R.Heel			L.Thigh.Upper			L.Thigh.Front			L.Thigh.Rear			L.Knee.Lat			L.Knee.Med			L.Shank.Upper			L.Shank.Front			L.Shank.Rear			L.Ankle.Lat			L.Midfoot.Lat			L.Toe.Lat			L.Toe.Tip			L.Toe.Med			L.Ankle.Med			L.Midfoot.Sup			L.Heel			origin1 front left			origin2 front right			origin 3 back right			origin 4 back leftt			
		X1	Y1	Z1	X2	Y2	Z2	X3	Y3	Z3	X4	Y4	Z4	X5	Y5	Z5	X6	Y6	Z6	X7	Y7	Z7	X8	Y8	Z8	X9	Y9	Z9	X10	Y10	Z10	X11	Y11	Z11	X12	Y12	Z12	X13	Y13	Z13	X14	Y14	Z14	X15	Y15	Z15	X16	Y16	Z16	X17	Y17	Z17	X18	Y18	Z18	X19	Y19	Z19	X20	Y20	Z20	X21	Y21	Z21	X22	Y22	Z22	X23	Y23	Z23	X24	Y24	Z24	X25	Y25	Z25	X26	Y26	Z26	X27	Y27	Z27	X28	Y28	Z28	X29	Y29	Z29	X30	Y30	Z30	X31	Y31	Z31	X32	Y32	Z32	X33	Y33	Z33	X34	Y34	Z34	X35	Y35	Z35	X36	Y36	Z36	X37	Y37	Z37	X38	Y38	Z38	X39	Y39	Z39	X40	Y40	Z40	X41	Y41	Z41	X42	Y42	Z42	X43	Y43	Z43	

409	8.160	-630.86084	127.90358	1841.95691	-612.87415	-56.39396	1535.66846	-633.25195	300.52478	1536.55994	-563.49481	117.30412	1346.14734	-615.28735	-0.20350	1053.26917	-641.23547	246.06343	1066.05615	-825.10718	86.68088	1066.72473	-685.95642	-69.64181	877.33673	-610.60498	-5.83281	805.94446	-707.20313	-60.63940	761.67157	-726.45935	-37.82182	619.70953	-710.84473	70.92172	573.55957	-733.16937	-35.59776	570.34003	-681.23651	12.07220	522.91101	-772.68854	-47.66296	488.45227	-760.35120	-21.65882	206.87088	-648.31995	-68.42477	161.03537	-605.73499	-73.94731	157.53423	-548.31006	-23.80185	162.62674	-600.19647	27.34823	168.60355	-721.05096	67.80534	218.31824	-675.21802	52.19094	161.16374	-793.32501	36.80848	173.64301	-730.61145	282.33798	877.60248	-627.73187	233.59613	795.49036	-734.70148	271.69931	746.09497	-759.16913	252.80498	643.07092	-715.05859	148.89063	575.62317	-758.04175	250.24884	576.05560	-700.09253	211.09782	537.39960	-793.25348	259.01428	500.39853	-770.55536	229.79546	203.82585	-660.58667	298.95349	156.40182	-624.22125	307.20074	157.86487	-557.07434	255.10652	164.55766	-593.55573	219.36949	174.29860	-715.22699	156.40839	219.09357	-675.99005	173.90315	160.80629	-796.94141	181.06702	182.81125	-527.96960	304.11697	146.44342	-517.94293	-72.93245	143.27328	-875.69025	-78.69250	141.15775	-882.63049	296.18198	144.61575	
410	8.180	-638.37598	127.69460	1843.37012	-617.94006	-56.52378	1537.17163	-637.47272	300.66211	1537.93970	-565.22089	117.14953	1348.09497	-612.11151	-0.02695	1053.59033	-637.28394	246.22745	1066.09912	-821.87042	87.29390	1066.12268	-682.87958	-69.50370	877.25134	-607.72131	-5.60138	805.79614	-704.55164	-60.33303	761.69299	-724.45056	-37.40665	619.71436	-708.90356	71.21438	573.60144	-731.37762	-35.21452	570.37286	-679.64520	12.42339	522.80182	-771.28003	-47.34969	488.74112	-760.23041	-21.63802	206.98984	-648.32977	-68.39676	161.05815	-605.81567	-73.96112	157.53296	-548.26215	-23.84731	162.65781	-600.22809	27.41535	168.59009	-720.92438	67.87785	218.14401	-675.18097	52.25812	161.09679	-793.23187	36.92393	173.63918	-726.82837	282.65097	877.49744	-624.39758	233.57037	795.26349	-731.64777	271.83932	746.09686	-756.71002	252.95306	643.16754	-713.24243	148.85715	575.59332	-755.95892	250.37918	576.18774	-698.24243	211.20012	537.26825	-791.56696	259.11139	500.61981	-770.37646	229.64171	203.84146	-660.60321	298.95459	156.38374	-624.19885	307.18063	157.85971	-557.00214	255.12463	164.55591	-593.45428	219.31648	174.27364	-715.07477	156.34329	219.03365	-676.00232	173.81786	160.61560	-796.82190	181.01865	182.81241	-527.94958	304.16791	146.46394	-517.94067	-72.89737	143.30093	-875.79846	-78.72726	141.22870	-882.62024	296.16751	144.61539	
411	8.200	-645.55042	127.44590	1844.53809	-622.83057	-56.74214	1538.48889	-641.46057	300.63535	1539.13586	-566.70294	116.96620	1349.81458	-609.16559	0.26682	1053.92896	-633.57727	246.35538	1066.14465	-818.73358	87.85103	1065.49976	-679.93964	-69.45396	877.19720	-604.97601	-5.47039	805.66687	-702.01868	-60.05376	761.68439	-722.51764	-36.99466	619.70764	-707.07776	71.49133	573.63104	-729.60510	-34.92523	570.46021	-678.09448	12.73316	522.70099	-769.92017	-47.02871	488.99579	-760.14032	-21.65716	207.11716	-648.33344	-68.38362	161.11119	-605.87317	-73.97998	157.54500	-548.17944	-23.92262	162.69389	-600.27521	27.43336	168.58807	-720.84790	67.95792	217.97241	-675.14044	52.29903	161.00267	-793.19183	37.07188	173.67435	-723.16107	282.98196	877.38123	-621.18842	233.43094	794.93091	-728.60278	271.91846	746.08966	-754.29865	253.10048	643.24939	-711.71173	148.75774	575.59479	-753.85315	250.52960	576.36273	-696.47229	211.29041	537.15186	-789.91486	259.19830	500.83130	-770.19800	229.49036	203.91246	-660.60187	298.93372	156.40196	-624.16986	307.15741	157.87505	-556.93793	255.11459	164.56845	-593.37256	219.28433	174.23682	-714.98279	156.27374	218.98079	-676.04071	173.75383	160.43306	-796.82990	180.87157	182.87331	-527.94080	304.25797	146.51686	-517.94019	-72.87083	143.29994	-875.86908	-78.75303	141.24818	-882.59692	296.15866	144.63481	
412	8.220	-652.35248	127.14335	1845.50977	-627.52533	-57.04855	1539.64966	-645.28864	300.45419	1540.14661	-567.85333	116.73506	1351.38269	-606.47424	0.49172	1054.19592	-630.10675	246.40845	1066.16797	-815.74176	88.39113	1064.88367	-677.19061	-69.45313	877.15155	-602.37408	-5.38640	805.54156	-699.58356	-59.78871	761.64294	-720.64600	-36.63391	619.71973	-705.28986	71.78053	573.66687	-727.80518	-34.72023	570.63031	-676.55450	13.01760	522.60406	-768.56671	-46.68174	489.21997	-760.02856	-21.64960	207.27168	-648.34418	-68.38161	161.21271	-605.86884	-73.97124	157.59021	-548.08685	-24.00529	162.72316	-600.31195	27.41734	168.55481	-720.75171	68.05048	217.80867	-675.09344	52.33770	160.86478	-793.18939	37.27159	173.73412	-719.59851	283.25754	877.24347	-618.12390	233.16641	794.50250	-725.54749	271.99466	746.06274	-751.93726	253.26207	643.33154	-710.34497	148.65892	575.60132	-751.78485	250.65981	576.50085	-694.77167	211.33020	537.01392	-788.24402	259.28030	501.06970	-770.00250	229.38414	204.02863	-660.56659	298.89410	156.44160	-624.14044	307.12759	157.92329	-556.87762	255.08659	164.60095	-593.31824	219.25887	174.19092	-714.95233	156.18904	218.89961	-676.09387	173.72064	160.25189	-796.97467	180.65466	183.02188	-527.97040	304.36188	146.58444	-517.95001	-72.86161	143.28313	-875.89313	-78.76215	141.24202	-882.57178	296.16037	144.66748	
